<svg xmlns="http://www.w3.org/2000/svg" width="132" height="46"><path fill="#00aeef" d="M21.9 4.5C11.683 4.5 3.4 12.783 3.4 23s8.283 18.5 18.5 18.5S40.4 33.217 40.4 23 32.117 4.5 21.9 4.5m-6.569 30.434a4.9 4.9 0 0 1-3.263-1.245l.01.016A14.5 14.5 0 0 1 7.373 23c0-8.024 6.504-14.528 14.528-14.528.776 0 1.539.062 2.282.177l.068.011c-2.474 1.105-4.277 3.19-4.7 5.995l-.002.016q-.061.417-.084.857h-.008v.16q-.001.054-.005.11v.248h.002a33 33 0 0 0 .273 5.445l-4.689 1.714a.633.633 0 0 0-.377.808l.202.55a3.392 3.392 0 0 0 4.917 1.754l.426-.25.116-.073.014.18c.113 1.773.024 3.123-.087 4.007l-.03.002a6 6 0 0 1-.032.429c-.075.48-.145.749-.159.792a4.89 4.89 0 0 1-4.696 3.53m6.569 2.594q-1.244-.002-2.433-.204c2.619-1.162 4.489-3.406 4.79-6.413a26.8 26.8 0 0 0-.034-7.232l4.796-2.845c.528-.313.757-.957.547-1.533l-.049-.132a1.18 1.18 0 0 0-1.514-.704l-4.26 1.558-.073.027-.005-.06c-.224-1.983-.205-3.236-.175-3.775h.002c.167-3.672 2.358-5.21 5.012-5.168a5.1 5.1 0 0 1 3.012 1.065q.313.275.612.571A14.5 14.5 0 0 1 36.428 23c0 8.024-6.504 14.528-14.528 14.528"/></svg>